<?xml version="1.0" encoding="UTF-8"?>
<svg id="Capa_1" data-name="Capa 1" xmlns="http://www.w3.org/2000/svg" viewBox="0 0 411.1 114.65">
  <defs>
    <style>
      .cls-1 {
        fill: #1b9bb5;
        stroke: #f4f4f4;
      }

      .cls-1, .cls-2, .cls-3 {
        stroke-miterlimit: 10;
      }

      .cls-2 {
        fill: #1b9db6;
        stroke: #fff;
      }

      .cls-4 {
        fill: #32aa8b;
      }

      .cls-5 {
        fill: #45484c;
      }

      .cls-6 {
        fill: #60b8c2;
      }

      .cls-7 {
        fill: #f7b79a;
      }

      .cls-8 {
        letter-spacing: 0em;
      }

      .cls-3 {
        fill: #f7f7f7;
        font-family: MyriadConceptRoman-BlackSemiCn, 'Myriad Variable Concept';
        font-size: 52.9px;
        font-variation-settings: 'wght' 900, 'wdth' 90;
        font-weight: 800;
        stroke: #1a9158;
      }

      .cls-9 {
        letter-spacing: -.02em;
      }
    </style>
  </defs>
  <rect class="cls-6" x=".78" y=".92" width="398.45" height="97.39"/>
  <path class="cls-1" d="m410.13,113.1H15.07c-4.66-5.31-9.31-10.63-13.97-15.94,132.82.41,265.64.83,398.45,1.24,3.52,4.9,7.05,9.8,10.57,14.7Z"/>
  <path class="cls-2" d="m410.13,113.1c-3.52-4.9-7.05-9.8-10.57-14.7-.1-32.46-.2-64.93-.3-97.39,3.62,2.73,7.24,5.46,10.86,8.19v103.91Z"/>
  <text/>
  <g>
    <path class="cls-7" d="m42.32,48.25c0,6.93,5.36,12.55,11.99,12.55s12-5.61,12-12.54h0c0-6.94-5.37-12.56-11.99-12.56-6.62,0-12,5.61-12,12.54h0s0,0,0,0Z"/>
    <path class="cls-4" d="m63.54,46.12c-1.14,0-2.1.78-2.44,1.85h0c-.17.57-.39,1.14-.66,1.67h.02c-.2.38-.31.82-.31,1.29,0,1.48,1.15,2.68,2.56,2.68,1.11,0,2.05-.73,2.41-1.77.31-.65.57-1.32.8-2.02.12-.31.19-.65.19-1.02,0-1.48-1.15-2.68-2.56-2.68h0Z"/>
    <path class="cls-4" d="m57.49,53.9c-.58,0-1.11.21-1.55.55-1.53.86-3.25,1.31-5.03,1.31-2.86,0-5.54-1.16-7.56-3.27-2.02-2.11-3.13-4.92-3.13-7.9s1.11-5.79,3.13-7.9c2.02-2.11,4.7-3.27,7.56-3.27s5.54,1.16,7.56,3.27c1.33,1.39,2.27,3.1,2.75,4.95v.02h0c.25,1.21,1.27,2.12,2.51,2.12,1.42,0,2.56-1.2,2.56-2.68,0-.31-.05-.61-.15-.89-1.84-7.01-7.97-12.16-15.25-12.16-8.74,0-15.82,7.4-15.82,16.54s7.08,16.54,15.82,16.54c2.87,0,5.56-.8,7.87-2.2v-.02c.75-.46,1.27-1.33,1.27-2.32,0-1.48-1.14-2.68-2.56-2.68Z"/>
    <path class="cls-5" d="m50.7,14.43c3.61,0,7.1.74,10.4,2.19,3.18,1.4,6.04,3.42,8.5,5.99s4.39,5.55,5.73,8.89c1.39,3.44,2.09,7.1,2.09,10.87s-.71,7.43-2.09,10.87c-1.34,3.33-3.27,6.31-5.73,8.89-2.45,2.57-5.31,4.59-8.5,5.99-3.29,1.46-6.79,2.19-10.4,2.19s-7.1-.74-10.4-2.19c-3.18-1.4-6.04-3.42-8.49-5.99s-4.39-5.55-5.73-8.88c-1.39-3.44-2.09-7.1-2.09-10.87s.71-7.43,2.09-10.87c1.34-3.33,3.27-6.31,5.73-8.89,2.45-2.57,5.31-4.59,8.5-5.99,3.28-1.46,6.78-2.2,10.39-2.2m0-5.36c-17.59,0-31.85,14.91-31.85,33.3s14.26,33.3,31.85,33.3,31.85-14.91,31.85-33.3-14.26-33.3-31.85-33.3h0Z"/>
    <path class="cls-5" d="m91.24,89.38l-20.08-21c-1-1.05-1-2.75,0-3.79,1-1.05,2.63-1.05,3.63,0l20.08,21c1,1.05,1,2.75,0,3.79-.99,1.04-2.62,1.04-3.63,0h0Z"/>
  </g>
  <text class="cls-3" transform="translate(106.4 70.31) scale(.81 1)"><tspan x="0" y="0">SUBIR IM</tspan><tspan class="cls-9" x="206.8" y="0">A</tspan><tspan class="cls-8" x="237.9" y="0">GEN</tspan></text>
</svg>